<svg xmlns="http://www.w3.org/2000/svg" width="40.737" height="42.887" viewBox="0 0 40.737 42.887">
  <path id="Icon_material-account-box" data-name="Icon material-account-box" d="M4.5,8.821V39.067a4.205,4.205,0,0,0,4.082,4.321H37.155a4.219,4.219,0,0,0,4.082-4.321V8.821A4.219,4.219,0,0,0,37.155,4.5H8.582A4.205,4.205,0,0,0,4.5,8.821Zm24.491,8.642a6.3,6.3,0,0,1-6.123,6.481,6.3,6.3,0,0,1-6.123-6.481,6.3,6.3,0,0,1,6.123-6.481A6.3,6.3,0,0,1,28.991,17.462ZM10.623,34.746c0-4.321,8.164-6.7,12.246-6.7s12.246,2.376,12.246,6.7v2.16H10.623Z" transform="translate(-2.5 -2.5)" fill="none" stroke="#fff" stroke-width="4"/>
</svg>
