<svg xmlns="http://www.w3.org/2000/svg" width="42.486" height="40.737" viewBox="0 0 42.486 40.737">
  <g id="Icon_feather-shopping-cart" data-name="Icon feather-shopping-cart" transform="translate(2 2)">
    <path id="Path_4" data-name="Path 4" d="M15.5,31.749A1.749,1.749,0,1,1,13.749,30,1.749,1.749,0,0,1,15.5,31.749Z" transform="translate(0.246 3.238)" fill="none" stroke="#fff" stroke-linecap="round" stroke-linejoin="round" stroke-width="4"/>
    <path id="Path_5" data-name="Path 5" d="M32,31.749A1.749,1.749,0,1,1,30.249,30,1.749,1.749,0,0,1,32,31.749Z" transform="translate(2.989 3.238)" fill="none" stroke="#fff" stroke-linecap="round" stroke-linejoin="round" stroke-width="4"/>
    <path id="Path_6" data-name="Path 6" d="M1.5,1.5h7l4.688,23.424a3.5,3.5,0,0,0,3.5,2.816h17a3.5,3.5,0,0,0,3.5-2.816l2.8-14.677H10.247" transform="translate(-1.5 -1.5)" fill="none" stroke="#fff" stroke-linecap="round" stroke-linejoin="round" stroke-width="4"/>
  </g>
</svg>
