<svg xmlns="http://www.w3.org/2000/svg" width="28.647" height="31.213" viewBox="0 0 28.647 31.213">
  <g id="Group_144" data-name="Group 144" transform="translate(1 0.5)">
    <path id="Icon_material-add" data-name="Icon material-add" d="M14.771,11.655H11.655v3.116H10.616V11.655H7.5V10.616h3.116V7.5h1.039v3.116h3.116Z" transform="translate(12.376 -7.5)" stroke="#000" stroke-width="1"/>
    <path id="Path_4" data-name="Path 4" d="M14.137,31.069A1.069,1.069,0,1,1,13.069,30,1.069,1.069,0,0,1,14.137,31.069Z" transform="translate(-4.519 -2.424)" fill="none" stroke="#000" stroke-linecap="round" stroke-linejoin="round" stroke-width="2"/>
    <path id="Path_5" data-name="Path 5" d="M30.637,31.069A1.069,1.069,0,1,1,29.569,30,1.069,1.069,0,0,1,30.637,31.069Z" transform="translate(-9.263 -2.424)" fill="none" stroke="#000" stroke-linecap="round" stroke-linejoin="round" stroke-width="2"/>
    <path id="Path_6" data-name="Path 6" d="M1.5,1.5H5.775L8.639,15.81a2.137,2.137,0,0,0,2.137,1.721H21.164A2.137,2.137,0,0,0,23.3,15.81l1.71-8.966H6.843" transform="translate(-1.5 5.771)" fill="none" stroke="#000" stroke-linecap="round" stroke-linejoin="round" stroke-width="2"/>
  </g>
</svg>
