<svg xmlns="http://www.w3.org/2000/svg" width="36.737" height="36.737" viewBox="0 0 36.737 36.737">
  <path id="Icon_awesome-balance-scale" data-name="Icon awesome-balance-scale" d="M14.695,24.108h0c0-1.161.077-.626-4.882-13.024C8.8,8.553,5.9,8.548,4.883,11.085-.118,23.588,0,22.984,0,24.108H0c0,3.17,3.29,5.74,7.347,5.74S14.695,27.278,14.695,24.108ZM7.347,12.628,11.48,22.96H3.214Zm29.388,11.48c0-1.161.077-.626-4.882-13.024-1.013-2.532-3.914-2.537-4.929,0-5,12.5-4.881,11.9-4.881,13.024h0c0,3.17,3.29,5.74,7.347,5.74s7.347-2.57,7.347-5.74ZM25.256,22.96l4.133-10.332L33.522,22.96Zm5.051,9.184h-10.1V11a5.644,5.644,0,0,0,2.663-4.108h7.44a1.052,1.052,0,0,0,.918-1.148v-2.3A1.052,1.052,0,0,0,30.308,2.3H22.021A4.353,4.353,0,0,0,18.368,0a4.353,4.353,0,0,0-3.653,2.3H6.429a1.052,1.052,0,0,0-.918,1.148v2.3a1.052,1.052,0,0,0,.918,1.148h7.44A5.644,5.644,0,0,0,16.532,11V32.145H6.429a1.052,1.052,0,0,0-.918,1.148v2.3a1.052,1.052,0,0,0,.918,1.148H30.308a1.052,1.052,0,0,0,.918-1.148v-2.3A1.052,1.052,0,0,0,30.308,32.145Z" fill="#feffff"/>
</svg>
