<svg xmlns="http://www.w3.org/2000/svg" width="29.756" height="31.214" viewBox="0 0 29.756 31.214">
  <g id="Group_219" data-name="Group 219" transform="translate(-1360.849 -1265.223)">
    <path id="Icon_material-add" data-name="Icon material-add" d="M15.181,11.889H11.889v3.292h-1.1V11.889H7.5v-1.1h3.292V7.5h1.1v3.292h3.292Z" transform="translate(1374.923 1258.223)" stroke="#000" stroke-width="1"/>
    <path id="Icon_awesome-balance-scale" data-name="Icon awesome-balance-scale" d="M10.166,17.635h0c0-.849.053-.458-3.377-9.527-.7-1.852-2.708-1.856-3.41,0C-.082,17.255,0,16.813,0,17.635H0c0,2.319,2.276,4.2,5.083,4.2S10.166,19.954,10.166,17.635Zm-5.083-8.4L7.942,16.8H2.224Zm20.331,8.4c0-.849.053-.458-3.377-9.527-.7-1.852-2.708-1.856-3.41,0-3.46,9.146-3.377,8.7-3.377,9.527h0c0,2.319,2.276,4.2,5.083,4.2s5.083-1.88,5.083-4.2Zm-7.941-.84,2.859-7.558L23.191,16.8Zm3.494,6.718H13.978V8.044a4.148,4.148,0,0,0,1.842-3h5.147A.759.759,0,0,0,21.6,4.2V2.519a.759.759,0,0,0-.635-.84H15.234A3,3,0,0,0,12.707,0,3,3,0,0,0,10.18,1.68H4.448a.759.759,0,0,0-.635.84V4.2a.759.759,0,0,0,.635.84H9.594a4.148,4.148,0,0,0,1.842,3v15.47H4.448a.759.759,0,0,0-.635.84v1.68a.759.759,0,0,0,.635.84H20.967a.759.759,0,0,0,.635-.84v-1.68A.759.759,0,0,0,20.967,23.514Z" transform="translate(1360.849 1269.563)"/>
  </g>
</svg>